HIERARCHY
ROOT Root
{
  OFFSET 0.0 0.0 0.0
  CHANNELS 6 Xposition Yposition Zposition Zrotation Yrotation Xrotation
  JOINT Hips
  {
    OFFSET 0.0 100.0 0.0
    CHANNELS 6 Xposition Yposition Zposition Zrotation Yrotation Xrotation
    JOINT Spine1
    {
      OFFSET -0.013727 5.003763 -0.053727
      CHANNELS 3 Zrotation Yrotation Xrotation
      JOINT Spine2
      {
        OFFSET -0.0 7.125301 -0.029825
        CHANNELS 3 Zrotation Yrotation Xrotation
        JOINT Chest
        {
          OFFSET -1e-06 7.550063 -0.815971
          CHANNELS 3 Zrotation Yrotation Xrotation
          JOINT Neck1
          {
            OFFSET -0.181677 26.311295 -0.553348
            CHANNELS 3 Zrotation Yrotation Xrotation
            JOINT Neck2
            {
              OFFSET -3e-06 7.709397 2.302585
              CHANNELS 3 Zrotation Yrotation Xrotation
              JOINT Head
              {
                OFFSET -5e-06 6.128916 1.953709
                CHANNELS 3 Zrotation Yrotation Xrotation
                JOINT HeadEnd
                {
                  OFFSET 0.003598 16.065403 -1.835379
                  CHANNELS 3 Zrotation Yrotation Xrotation
                }
                JOINT Jaw
                {
                  OFFSET 0.002637 0.475592 3.094941
                  CHANNELS 3 Zrotation Yrotation Xrotation
                }
                JOINT LeftEye
                {
                  OFFSET 3.206381 5.380205 7.586883
                  CHANNELS 3 Zrotation Yrotation Xrotation
                }
                JOINT RightEye
                {
                  OFFSET -3.22244 5.361869 7.558234
                  CHANNELS 3 Zrotation Yrotation Xrotation
                }
              }
            }
          }
          JOINT LeftShoulder
          {
            OFFSET 1.621652 23.237164 5.113413
            CHANNELS 3 Zrotation Yrotation Xrotation
            JOINT LeftArm
            {
              OFFSET 14.919846 2e-06 -5.502326
              CHANNELS 3 Zrotation Yrotation Xrotation
              JOINT LeftForeArm
              {
                OFFSET 28.739307 0.0 -0.002588
                CHANNELS 3 Zrotation Yrotation Xrotation
                JOINT LeftHand
                {
                  OFFSET 27.093981 -1e-06 0.002609
                  CHANNELS 3 Zrotation Yrotation Xrotation
                  JOINT LeftHandThumb1
                  {
                    OFFSET 2.276482 -1.392045 3.191413
                    CHANNELS 3 Zrotation Yrotation Xrotation
                    JOINT LeftHandThumb2
                    {
                      OFFSET 4.012836 -1.828127 1.641654
                      CHANNELS 3 Zrotation Yrotation Xrotation
                      JOINT LeftHandThumb3
                      {
                        OFFSET 2.798515 0.0 -3e-06
                        CHANNELS 3 Zrotation Yrotation Xrotation
                        JOINT LeftHandThumbEnd
                        {
                          OFFSET 3.180793 -4e-06 4e-06
                          CHANNELS 3 Zrotation Yrotation Xrotation
                        }
                      }
                    }
                  }
                  JOINT LeftHandIndex1
                  {
                    OFFSET 3.247555 -0.531998 2.296169
                    CHANNELS 3 Zrotation Yrotation Xrotation
                    JOINT LeftHandIndex2
                    {
                      OFFSET 6.364578 0.01206 0.1786
                      CHANNELS 3 Zrotation Yrotation Xrotation
                      JOINT LeftHandIndex3
                      {
                        OFFSET 3.662364 0.0 0.0
                        CHANNELS 3 Zrotation Yrotation Xrotation
                        JOINT LeftHandIndex4
                        {
                          OFFSET 2.329242 4e-06 4e-06
                          CHANNELS 3 Zrotation Yrotation Xrotation
                          JOINT LeftHandIndexEnd
                          {
                            OFFSET 2.759615 -0.180537 -0.113024
                            CHANNELS 3 Zrotation Yrotation Xrotation
                          }
                        }
                      }
                    }
                  }
                  JOINT LeftHandMiddle1
                  {
                    OFFSET 3.163495 0.240981 1.000332
                    CHANNELS 3 Zrotation Yrotation Xrotation
                    JOINT LeftHandMiddle2
                    {
                      OFFSET 6.19078 -0.259278 -1.002548
                      CHANNELS 3 Zrotation Yrotation Xrotation
                      JOINT LeftHandMiddle3
                      {
                        OFFSET 4.35652 -4e-06 -1e-06
                        CHANNELS 3 Zrotation Yrotation Xrotation
                        JOINT LeftHandMiddle4
                        {
                          OFFSET 2.996877 -8e-06 0.0
                          CHANNELS 3 Zrotation Yrotation Xrotation
                          JOINT LeftHandMiddleEnd
                          {
                            OFFSET 2.304287 -0.294569 -0.031741
                            CHANNELS 3 Zrotation Yrotation Xrotation
                          }
                        }
                      }
                    }
                  }
                  JOINT LeftHandRing1
                  {
                    OFFSET 2.882643 -0.053652 -0.322543
                    CHANNELS 3 Zrotation Yrotation Xrotation
                    JOINT LeftHandRing2
                    {
                      OFFSET 5.854541 -0.486202 -1.373841
                      CHANNELS 3 Zrotation Yrotation Xrotation
                      JOINT LeftHandRing3
                      {
                        OFFSET 4.350578 0.0 3e-06
                        CHANNELS 3 Zrotation Yrotation Xrotation
                        JOINT LeftHandRing4
                        {
                          OFFSET 2.651321 7e-06 2e-06
                          CHANNELS 3 Zrotation Yrotation Xrotation
                          JOINT LeftHandRingEnd
                          {
                            OFFSET 1.936105 0.077687 -7.1e-05
                            CHANNELS 3 Zrotation Yrotation Xrotation
                          }
                        }
                      }
                    }
                  }
                  JOINT LeftHandPinky1
                  {
                    OFFSET 2.8655 -0.310005 -1.600378
                    CHANNELS 3 Zrotation Yrotation Xrotation
                    JOINT LeftHandPinky2
                    {
                      OFFSET 5.087849 -1.331141 -1.77123
                      CHANNELS 3 Zrotation Yrotation Xrotation
                      JOINT LeftHandPinky3
                      {
                        OFFSET 3.070974 4e-06 0.0
                        CHANNELS 3 Zrotation Yrotation Xrotation
                        JOINT LeftHandPinky4
                        {
                          OFFSET 1.549672 0.0 1e-06
                          CHANNELS 3 Zrotation Yrotation Xrotation
                          JOINT LeftHandPinkyEnd
                          {
                            OFFSET 1.944893 -0.157802 0.057219
                            CHANNELS 3 Zrotation Yrotation Xrotation
                          }
                        }
                      }
                    }
                  }
                }
              }
            }
          }
          JOINT RightShoulder
          {
            OFFSET -1.380118 23.180309 5.214158
            CHANNELS 3 Zrotation Yrotation Xrotation
            JOINT RightArm
            {
              OFFSET -15.037196 1.2e-05 -5.545604
              CHANNELS 3 Zrotation Yrotation Xrotation
              JOINT RightForeArm
              {
                OFFSET -28.736639 2e-06 -0.002597
                CHANNELS 3 Zrotation Yrotation Xrotation
                JOINT RightHand
                {
                  OFFSET -27.133619 -0.0 0.002613
                  CHANNELS 3 Zrotation Yrotation Xrotation
                  JOINT RightHandThumb1
                  {
                    OFFSET -2.274032 -1.383988 3.163127
                    CHANNELS 3 Zrotation Yrotation Xrotation
                    JOINT RightHandThumb2
                    {
                      OFFSET -4.011429 -1.827466 1.640914
                      CHANNELS 3 Zrotation Yrotation Xrotation
                      JOINT RightHandThumb3
                      {
                        OFFSET -2.794935 -4e-06 -3e-06
                        CHANNELS 3 Zrotation Yrotation Xrotation
                        JOINT RightHandThumbEnd
                        {
                          OFFSET -3.183852 4e-06 1e-06
                          CHANNELS 3 Zrotation Yrotation Xrotation
                        }
                      }
                    }
                  }
                  JOINT RightHandIndex1
                  {
                    OFFSET -3.253266 -0.520057 2.282866
                    CHANNELS 3 Zrotation Yrotation Xrotation
                    JOINT RightHandIndex2
                    {
                      OFFSET -6.341917 0.012471 0.178266
                      CHANNELS 3 Zrotation Yrotation Xrotation
                      JOINT RightHandIndex3
                      {
                        OFFSET -3.654871 -8e-06 -0.0
                        CHANNELS 3 Zrotation Yrotation Xrotation
                        JOINT RightHandIndex4
                        {
                          OFFSET -2.327586 0.0 1e-06
                          CHANNELS 3 Zrotation Yrotation Xrotation
                          JOINT RightHandIndexEnd
                          {
                            OFFSET -2.76179 -0.180656 -0.113078
                            CHANNELS 3 Zrotation Yrotation Xrotation
                          }
                        }
                      }
                    }
                  }
                  JOINT RightHandMiddle1
                  {
                    OFFSET -3.168106 0.246593 1.00103
                    CHANNELS 3 Zrotation Yrotation Xrotation
                    JOINT RightHandMiddle2
                    {
                      OFFSET -6.180828 -0.258836 -1.000895
                      CHANNELS 3 Zrotation Yrotation Xrotation
                      JOINT RightHandMiddle3
                      {
                        OFFSET -4.348901 0.0 -0.0
                        CHANNELS 3 Zrotation Yrotation Xrotation
                        JOINT RightHandMiddle4
                        {
                          OFFSET -3.00024 -4e-06 -2e-06
                          CHANNELS 3 Zrotation Yrotation Xrotation
                          JOINT RightHandMiddleEnd
                          {
                            OFFSET -2.30252 -0.29437 -0.031706
                            CHANNELS 3 Zrotation Yrotation Xrotation
                          }
                        }
                      }
                    }
                  }
                  JOINT RightHandRing1
                  {
                    OFFSET -2.88569 -0.067952 -0.308858
                    CHANNELS 3 Zrotation Yrotation Xrotation
                    JOINT RightHandRing2
                    {
                      OFFSET -5.854198 -0.48613 -1.373731
                      CHANNELS 3 Zrotation Yrotation Xrotation
                      JOINT RightHandRing3
                      {
                        OFFSET -4.33881 -4e-06 -0.0
                        CHANNELS 3 Zrotation Yrotation Xrotation
                        JOINT RightHandRing4
                        {
                          OFFSET -2.654903 -4e-06 4e-06
                          CHANNELS 3 Zrotation Yrotation Xrotation
                          JOINT RightHandRingEnd
                          {
                            OFFSET -1.933568 0.077527 -5.2e-05
                            CHANNELS 3 Zrotation Yrotation Xrotation
                          }
                        }
                      }
                    }
                  }
                  JOINT RightHandPinky1
                  {
                    OFFSET -2.866425 -0.342796 -1.584145
                    CHANNELS 3 Zrotation Yrotation Xrotation
                    JOINT RightHandPinky2
                    {
                      OFFSET -5.091371 -1.332055 -1.772385
                      CHANNELS 3 Zrotation Yrotation Xrotation
                      JOINT RightHandPinky3
                      {
                        OFFSET -3.062664 -4e-06 1e-06
                        CHANNELS 3 Zrotation Yrotation Xrotation
                        JOINT RightHandPinky4
                        {
                          OFFSET -1.546529 4e-06 -2e-06
                          CHANNELS 3 Zrotation Yrotation Xrotation
                          JOINT RightHandPinkyEnd
                          {
                            OFFSET -1.945119 -0.157718 0.057211
                            CHANNELS 3 Zrotation Yrotation Xrotation
                          }
                        }
                      }
                    }
                  }
                }
              }
            }
          }
        }
      }
    }
    JOINT LeftLeg
    {
      OFFSET 10.043214 -8.434526 2.595655
      CHANNELS 3 Zrotation Yrotation Xrotation
      JOINT LeftShin
      {
        OFFSET -1e-06 -43.221752 -0.802913
        CHANNELS 3 Zrotation Yrotation Xrotation
        JOINT LeftFoot
        {
          OFFSET 1e-06 -42.155094 -3.481523
          CHANNELS 3 Zrotation Yrotation Xrotation
          JOINT LeftToeBase
          {
            OFFSET 0.0 -5.059472 13.231529
            CHANNELS 3 Zrotation Yrotation Xrotation
            JOINT LeftToeEnd
            {
              OFFSET -0.009607 -1.647619 6.513017
              CHANNELS 3 Zrotation Yrotation Xrotation
            }
          }
        }
      }
    }
    JOINT RightLeg
    {
      OFFSET -10.047278 -8.29526 2.620317
      CHANNELS 3 Zrotation Yrotation Xrotation
      JOINT RightShin
      {
        OFFSET 1e-06 -43.362206 -0.805556
        CHANNELS 3 Zrotation Yrotation Xrotation
        JOINT RightFoot
        {
          OFFSET 2e-06 -42.117393 -3.478398
          CHANNELS 3 Zrotation Yrotation Xrotation
          JOINT RightToeBase
          {
            OFFSET -0.0 -5.079609 13.284196
            CHANNELS 3 Zrotation Yrotation Xrotation
            JOINT RightToeEnd
            {
              OFFSET 0.009532 -1.634378 6.460591
              CHANNELS 3 Zrotation Yrotation Xrotation
            }
          }
        }
      }
    }
  }
}
MOTION
Frames: 4
Frame Time: 0.03333333333333333
0.0 0.0 0.0 0.0 -0.0 0.0 -4.404811 101.334366 3.15502 -2.406685 -3.565047 4.469877 1.37921 -0.893309 4.543224 0.360414 -0.880183 -2.7862 1.792484 -2.93377 8.809558 -1.169377 3.46787 0.898864 -0.370608 -0.259212 -3.629259 3.286556 -0.238421 -11.976288 7.7e-05 -2.2e-05 6e-06 0.028235 0.110463 0.09832 0.739999 -3.632641 -10.659167 -0.688692 3.851972 -10.6668 7.673199 -8.85688 6.929176 -44.883339 -28.066267 25.083891 -178.005203 -48.706787 179.176682 14.708724 -15.895596 22.276161 -5.88211 9.861292 0.702588 -10.93688 -0.360576 7.156215 1e-06 8.77483 -2e-06 -16.446196 18.724854 5.8432 -1.844035 2.498507 -2.507281 -10.163608 4.678947 4.621114 -20.976042 -5e-06 2e-06 -21.226305 2.451696 -3.594005 -0.0 -5e-06 -1e-06 -1.362682 2.2408 -0.746324 -21.334934 0.584909 3.008327 -13.821226 -3e-06 3e-06 -23.887188 -0.24908 -0.839484 -62.632526 2.578444 -1.963793 -0.294025 1.679688 0.833255 -14.218221 0.093214 1.300583 -34.212078 -0.287565 0.967174 -20.033232 0.964538 1.212846 0.0 0.0 1e-06 -3.440391 0.788233 0.501656 -15.928201 -3.167313 2.999712 -6.338831 -2e-06 1e-06 -18.123463 3.648183 -4.905676 -4e-06 -0.0 -3e-06 6.141598 10.284523 13.739797 27.940601 3.315095 42.808414 4.897893 82.376305 6.541334 -18.041853 8.276854 8.892498 2.243544 -5.255037 -3.180156 14.282894 -0.826597 6.9525 -2e-06 -12.690605 2e-06 15.951525 -18.05476 2.769948 1.665667 -1.955922 -2.878299 4.727798 -4.170588 4.993923 11.020526 2e-06 -2e-06 12.109055 -3.735716 -2.866784 -0.0 -0.0 0.0 1.291987 -1.92855 -1.498089 14.800129 0.567468 3.865604 14.242577 -1.341737 -6.660659 19.631971 0.143927 -0.648248 49.355679 -0.913503 -6.374279 0.35303 -1.511151 -0.031939 20.222794 3.684308 2.316628 18.787279 3e-06 -3e-06 10.751631 -0.479867 1.397904 0.0 -0.0 0.0 3.273806 0.305947 -0.580112 21.486816 11.830374 2.266128 8.162928 1e-06 -1e-06 18.399084 -3.798984 -4.940578 3e-06 -1e-06 -1e-06 12.737998 11.269018 -13.835977 0.004836 -0.50542 14.648058 -11.486852 8.79334 4.119278 1.76149 -1.925135 0.415469 -0.0 -0.0 2e-06 -27.007893 -9.623291 -40.889137 0.740711 0.328319 114.973412 -2.980965 -16.010981 -30.124836 -1.71179 0.842653 -3.110025 -0.0 1e-06 -2e-06 
0.0 0.0 0.0 0.0 -0.0 0.0 -5.758859 104.724228 2.665709 -0.926925 -4.583052 6.402852 1.661412 -0.783473 4.249642 0.238929 -1.247178 -2.962812 0.82154 -3.407205 8.229479 -2.83535 3.737954 0.003413 -0.244928 0.303219 -3.656191 2.911373 -0.345238 -10.538811 7.7e-05 -2.3e-05 6e-06 0.008595 0.007279 0.028613 0.767134 -3.738093 -10.764411 -0.753295 3.743969 -10.791702 8.270737 -9.122815 6.573876 -47.019794 -25.125345 24.169914 -177.099167 -48.14864 178.303162 12.124794 -13.970517 22.070406 -5.88211 9.861292 0.702592 -10.936881 -0.360576 7.156213 1e-06 8.774831 -0.0 -16.242371 18.655201 5.938905 -1.844035 2.498506 -2.50728 -10.163608 4.678947 4.621112 -20.976042 -5e-06 5e-06 -21.226301 2.451697 -3.594001 -0.0 -6e-06 -0.0 -1.362682 2.240799 -0.746324 -21.33493 0.584908 3.008328 -13.821225 -4e-06 3e-06 -23.887192 -0.249081 -0.839482 -62.964066 2.366574 -1.825735 -0.294024 1.679688 0.833255 -14.218221 0.093213 1.300582 -34.212078 -0.287567 0.967174 -20.03323 0.964537 1.212848 2e-06 1e-06 1e-06 -3.440392 0.788233 0.501656 -15.928201 -3.167313 2.99971 -6.338833 -1e-06 2e-06 -18.123463 3.648184 -4.905672 -4e-06 0.0 -2e-06 4.414317 9.615207 13.864582 26.911234 0.329463 47.815533 2.545877 84.65815 4.484312 -17.941545 8.513317 8.101765 2.243542 -5.25504 -3.180159 14.282898 -0.826597 6.952507 -2e-06 -12.69061 2e-06 15.793319 -17.956713 2.92927 1.665668 -1.955921 -2.878302 4.7278 -4.170588 4.993927 11.020534 2e-06 -2e-06 12.109059 -3.735718 -2.866786 0.0 0.0 -0.0 1.291987 -1.928551 -1.49809 14.800138 0.567467 3.86561 14.24258 -1.341736 -6.660662 19.631979 0.143926 -0.648245 49.82682 -0.875198 -6.158767 0.353027 -1.511151 -0.031939 20.222803 3.68431 2.316631 18.787287 3e-06 -1e-06 10.751634 -0.479871 1.397906 -0.0 0.0 0.0 3.273809 0.305946 -0.58011 21.486828 11.830379 2.266133 8.162933 1e-06 -1e-06 18.399096 -3.798988 -4.940578 2e-06 -2e-06 -1e-06 12.456515 15.436518 -11.785117 0.005362 -0.464907 5.33615 -16.257477 4.790049 17.354216 1.70235 -1.989373 -2.097795 0.0 -0.0 1e-06 -20.503798 -11.887539 -43.346626 0.64022 0.454089 104.397972 -2.734775 -6.005914 -22.871647 -1.563025 0.849508 -3.150234 -0.0 0.0 -3e-06 
0.0 0.0 0.0 0.0 -0.0 0.0 -7.602437 106.94696 2.327753 0.511093 -4.72992 7.162338 1.534218 -0.996439 3.900384 -0.014189 -1.654285 -2.984782 -0.055098 -3.822285 8.145017 -3.089216 3.5888 -0.005881 -0.243826 0.725217 -3.730403 2.493043 -0.382861 -8.950749 7.7e-05 -2.2e-05 6e-06 -0.000966 -0.086788 0.006115 0.770068 -3.813659 -10.725192 -0.773412 3.625405 -10.747804 8.026454 -9.220016 6.73445 -47.172634 -20.847792 24.72982 -176.583435 -47.453644 177.631454 11.397193 -13.855155 20.501434 -5.882106 9.861286 0.702589 -10.936873 -0.360576 7.156208 1e-06 8.774825 -1e-06 -15.830045 18.389851 6.14622 -1.844032 2.498505 -2.507279 -10.163601 4.678945 4.621109 -20.976028 -5e-06 0.0 -21.226292 2.451694 -3.594002 0.0 -6e-06 -1e-06 -1.362682 2.240798 -0.746324 -21.334917 0.584908 3.008323 -13.821215 -4e-06 2e-06 -23.887175 -0.249082 -0.839484 -62.116119 2.11445 -1.55486 -0.294024 1.679688 0.833256 -14.21821 0.093214 1.300581 -34.212051 -0.287568 0.967168 -20.033216 0.964534 1.212845 1e-06 0.0 -1e-06 -3.440389 0.788233 0.501655 -15.928189 -3.167311 2.999707 -6.338827 -2e-06 1e-06 -18.123449 3.64818 -4.905672 -5e-06 0.0 -2e-06 4.503439 7.751079 14.039306 26.198259 -4.478959 49.251076 -3.323273 88.211624 -1.329053 -17.805952 7.492152 4.331342 2.243542 -5.255037 -3.18016 14.2829 -0.826596 6.952506 -2e-06 -12.690609 1e-06 15.641254 -17.944466 3.013373 1.665668 -1.955922 -2.8783 4.727801 -4.170588 4.993925 11.020531 2e-06 -2e-06 12.109059 -3.735717 -2.866786 -0.0 0.0 0.0 1.291987 -1.92855 -1.49809 14.800136 0.567468 3.865607 14.242579 -1.341736 -6.660662 19.631975 0.143927 -0.648246 50.258781 -0.723806 -5.984192 0.353029 -1.51115 -0.031941 20.222803 3.684312 2.316629 18.787287 6e-06 -2e-06 10.751635 -0.479867 1.397906 -0.0 1e-06 0.0 3.27381 0.305948 -0.580111 21.486828 11.830379 2.266132 8.162933 -1e-06 -1e-06 18.399096 -3.798986 -4.94058 2e-06 -2e-06 -1e-06 14.705363 17.224752 -11.928205 -0.233074 -0.844249 8.094468 -18.485647 2.691355 15.640368 1.718557 -1.976482 -1.454764 -0.0 0.0 1e-06 -15.91595 -11.742357 -40.854847 0.563055 0.606698 89.566078 1.363965 2.097741 -15.469764 -1.428834 0.844162 -3.812552 0.0 0.0 -4e-06 
0.0 0.0 0.0 0.0 -0.0 0.0 -9.723706 107.646965 2.018591 2.036204 -4.80018 7.044509 0.792969 -1.268524 3.567552 -0.43826 -1.909178 -2.987204 -0.805291 -4.424853 8.354229 -2.694252 3.441606 0.617337 -0.270057 1.406375 -3.74975 1.977345 -0.122053 -7.921515 7.7e-05 -2.3e-05 6e-06 0.002426 -0.129133 0.026176 0.772916 -3.832234 -10.653545 -0.768797 3.562478 -10.674335 7.089249 -8.733771 7.596953 -44.920078 -15.0081 25.865309 -176.973984 -47.491272 177.903549 12.309136 -15.195552 17.82449 -5.882108 9.861287 0.702588 -10.936875 -0.360576 7.156209 1e-06 8.774826 0.0 -15.640375 18.218393 6.396906 -1.844033 2.498505 -2.507278 -10.163604 4.678945 4.621109 -20.97603 -5e-06 1e-06 -21.226295 2.451695 -3.594 -0.0 -6e-06 -1e-06 -1.36268 2.240798 -0.746325 -21.334921 0.584908 3.008323 -13.821218 -4e-06 1e-06 -23.887178 -0.249082 -0.839485 -61.093216 2.164082 -1.568439 -0.294025 1.679687 0.833256 -14.218214 0.093214 1.300581 -34.212063 -0.287568 0.967167 -20.033218 0.964536 1.212845 1e-06 -0.0 0.0 -3.440389 0.788233 0.501655 -15.928192 -3.167311 2.999708 -6.338829 -2e-06 1e-06 -18.123453 3.648182 -4.905672 -4e-06 -0.0 -3e-06 5.86761 5.056268 14.139872 26.254642 -10.255726 46.571106 -172.678955 86.548668 -170.751678 -18.5284 6.628359 -0.907506 2.243541 -5.255038 -3.18016 14.282896 -0.826596 6.952505 -2e-06 -12.690605 -2e-06 15.823759 -18.077036 2.963452 1.665665 -1.955922 -2.878299 4.7278 -4.170588 4.993925 11.020528 2e-06 -1e-06 12.109055 -3.735717 -2.866785 0.0 1e-06 1e-06 1.291986 -1.928549 -1.49809 14.800132 0.567469 3.865609 14.242576 -1.341738 -6.660661 19.631973 0.143925 -0.648247 50.838463 -0.751572 -6.000377 0.353029 -1.51115 -0.031941 20.222801 3.684308 2.316632 18.787279 4e-06 -2e-06 10.75163 -0.47987 1.397906 1e-06 1e-06 -1e-06 3.273808 0.305948 -0.580111 21.48682 11.830376 2.266135 8.162929 0.0 0.0 18.399088 -3.798986 -4.940577 3e-06 -1e-06 -1e-06 19.449894 17.318132 -13.587348 -0.545826 -0.831023 19.737791 -14.293298 4.771912 6.526154 1.851019 -1.918692 -1.789854 -0.0 -1e-06 1e-06 -13.320818 -9.857021 -35.388191 0.370529 0.729299 71.764137 5.04655 4.872811 -8.103839 -1.393412 0.858295 -4.371642 -0.0 0.0 -2e-06 
